PathFileType	4	(X/Y/Z)	D:\TRACE\v60_Jaco2_6-2-23\JustBodyDRS_Motion1_2-platform.trc
DataRate	CameraRate	NumFrames	NumMarkers	Units	OrigDataRate	OrigDataStartFrame	OrigNumFrames
100.00	100.00	      49	5	mm	100.00	870	      6954
Frame#	Time	Left_Front			Right_Front			Left_Aft			Right_Aft			Post			
		X1	Y1	Z1	X2	Y2	Z2	X3	Y3	Z3	X4	Y4	Z4	X5	Y5	Z5	

870	8.690	-831.12842	34.39974	-632.09375	739.04755	35.14596	-637.57104	-739.17004	-9.70365	502.02618	703.38098	-11.77306	511.69705	-43.87083	1344.35706	-905.49463	
871	8.700	-830.40057	34.44613	-631.99237	739.68561	35.00276	-637.62341	-738.14832	-9.69443	501.93204	704.06439	-11.46392	511.75919	-42.96369	1344.07483	-906.23254	
872	8.710	-829.20990	33.91778	-632.29095	740.39984	34.70205	-637.83661	-737.25891	-9.55254	501.95163	704.97498	-11.16496	511.79434	-42.34905	1343.80615	-906.71399	
873	8.720	-828.24554	33.68274	-632.30231	741.13208	34.46282	-637.88538	-736.73273	-9.23558	501.74167	705.53058	-11.04678	511.06000	-41.80413	1343.38623	-906.99402	
874	8.730	-827.66553	33.33322	-632.44916	742.03516	34.14658	-637.92255	-735.94171	-9.16281	501.97488	706.22491	-10.80204	511.55972	-40.83030	1343.00891	-907.78705	
875	8.740	-827.29608	33.16714	-632.68243	742.81512	33.85958	-637.91150	-734.94958	-9.13206	501.80963	707.41101	-10.50586	511.57693	-40.31997	1342.63403	-908.14960	
876	8.750	-826.38794	32.89060	-632.57556	743.53369	33.55643	-638.08673	-734.27765	-8.87585	501.66330	707.77710	-10.37018	511.62848	-39.34046	1342.07544	-908.95679	
877	8.760	-825.34344	32.27360	-632.70319	744.38989	33.38860	-638.27081	-733.69427	-8.23535	501.57932	708.77997	-10.02235	511.42252	-38.73760	1341.70776	-909.51520	
878	8.770	-824.62085	31.95894	-632.66254	745.17841	33.13667	-638.31335	-732.80493	-8.20949	501.53036	709.76361	-9.78970	511.39291	-38.21236	1341.32019	-910.22534	
879	8.780	-823.99841	31.53806	-632.82904	746.01141	32.59963	-638.37433	-731.85474	-7.95578	501.48212	710.37738	-9.57903	511.33188	-37.14877	1340.69946	-911.16498	
880	8.790	-823.28613	31.24568	-632.90955	746.80420	32.21806	-638.56366	-731.22235	-7.77930	501.43188	711.20410	-9.47301	511.04697	-36.26486	1340.49695	-912.36945	
881	8.800	-822.24945	30.69413	-633.10046	747.53668	31.90605	-638.62140	-730.41211	-7.54781	501.31143	712.29779	-9.29243	510.96689	-35.77758	1339.81360	-912.86859	
882	8.810	-821.35944	30.58240	-633.21301	748.57092	31.54248	-638.54388	-729.34644	-7.33224	501.19333	713.03064	-8.94169	510.94580	-34.47261	1339.33313	-913.98804	
883	8.820	-820.42981	30.33125	-633.03552	749.47260	31.16810	-638.53851	-729.13611	-6.38535	501.26724	713.57385	-8.67690	510.85461	-33.59093	1338.81165	-915.08862	
884	8.830	-819.55096	30.07415	-633.58405	750.22174	30.97212	-638.89667	-728.22333	-6.31692	501.11298	714.93146	-8.38339	510.66138	-32.84453	1338.26282	-915.88806	
885	8.840	-818.76233	29.73314	-633.73212	751.05048	30.55111	-638.98926	-727.34344	-5.87793	501.18216	715.41681	-8.25151	510.60510	-31.66376	1337.79907	-916.65234	
886	8.850	-817.87427	29.14233	-633.86646	751.85236	30.15977	-639.08569	-726.53760	-6.00879	501.05081	715.97339	-8.02770	510.56885	-30.96457	1337.26575	-917.12598	
887	8.860	-817.14050	28.92117	-633.68475	752.84882	29.95358	-638.99677	-725.46985	-5.83771	501.11633	717.06152	-7.69127	510.55441	-30.38048	1336.90894	-917.79877	
888	8.870	-816.14563	28.62663	-633.67975	753.61169	29.71734	-639.13831	-724.06708	-6.07290	500.80869	718.19128	-7.29107	510.45203	-29.82514	1336.70313	-918.29364	
889	8.880	-815.21167	28.17269	-633.77435	754.64990	29.43670	-639.25330	-723.70667	-5.09492	500.55255	718.85004	-7.09363	510.44534	-28.60035	1336.10181	-918.73926	
890	8.890	-814.52521	27.74793	-633.88965	755.59546	28.98069	-639.51105	-722.64264	-5.08734	500.49573	719.77087	-6.84301	510.41415	-27.85956	1335.67493	-919.50769	
891	8.900	-813.65857	27.36635	-634.17810	756.35455	28.61158	-639.49048	-721.85651	-4.76070	500.32870	720.66418	-6.77982	509.71439	-27.03639	1334.96399	-919.91425	
892	8.910	-812.53424	26.88466	-634.18774	757.14874	28.19483	-639.60242	-721.03619	-4.73176	500.53793	721.86438	-6.40710	510.08722	-25.82355	1334.45618	-920.95679	
893	8.920	-811.60736	26.83132	-634.25055	758.31000	27.72809	-639.78192	-719.82281	-4.40385	500.71036	722.79688	-6.05308	510.19803	-25.09915	1333.89746	-921.72565	
894	8.930	-810.76001	26.47351	-634.37585	759.06226	27.43894	-639.83899	-719.01569	-4.15019	500.49020	723.31793	-5.86880	510.09918	-24.43673	1333.44995	-923.02643	
895	8.940	-809.63330	26.03829	-634.86237	759.96985	26.89987	-640.00708	-718.15503	-3.63500	500.20490	724.71857	-5.57806	509.87759	-22.93504	1332.80054	-924.18402	
896	8.950	-808.86005	25.74172	-634.81189	760.93536	26.48157	-640.17834	-717.28778	-3.53296	500.05661	725.53339	-5.23475	509.92184	-22.08985	1332.28088	-925.52112	
897	8.960	-807.91211	25.15206	-634.74664	761.82281	26.10177	-640.27563	-715.76544	-3.87775	500.01395	726.27429	-4.95503	509.66379	-21.29205	1331.52893	-926.35278	
898	8.970	-806.97607	24.71282	-635.03369	762.96899	25.68218	-640.38531	-715.68787	-2.84973	500.25394	727.49762	-4.61449	509.60733	-20.08025	1331.02905	-927.31274	
899	8.980	-805.94580	24.43088	-635.25916	763.66669	25.49027	-640.54205	-714.70807	-2.51822	499.97559	728.19434	-4.36583	509.64249	-19.31441	1330.61047	-928.16113	
900	8.990	-805.21222	24.00952	-635.03741	764.62238	25.19190	-640.54480	-713.03790	-2.86923	499.65482	729.00879	-3.99835	509.50241	-18.28494	1330.18860	-929.00195	
901	9.000	-804.14825	23.73318	-635.04614	765.53217	24.89604	-640.75336	-712.22766	-2.67434	499.60193	730.07471	-3.78851	509.30951	-17.36705	1329.75708	-929.73425	
902	9.010	-802.88263	23.47926	-635.21423	766.60730	24.50185	-641.02405	-710.99194	-2.46812	499.61243	730.86823	-3.57012	509.17844	-16.69301	1328.88623	-929.97986	
903	9.020	-802.07263	22.94733	-635.75208	767.63202	23.70777	-640.88489	-710.13812	-2.30233	499.45367	731.93445	-3.21797	509.22421	-15.62528	1328.40405	-930.63287	
904	9.030	-801.32977	22.45900	-635.57782	768.47443	23.07248	-641.03864	-709.24164	-2.09656	499.38663	733.02100	-2.92272	508.93317	-14.81362	1327.92126	-931.13110	
905	9.040	-800.02997	22.09846	-635.80267	769.60297	23.04674	-641.11829	-708.23590	-1.74570	499.09360	733.76508	-2.68764	508.90854	-14.06980	1327.43250	-931.72083	
906	9.050	-799.26831	21.83506	-635.71057	770.44720	22.96651	-641.22894	-707.42535	-1.32080	499.00296	735.09357	-2.46555	508.74075	-13.04388	1326.72986	-932.40503	
907	9.060	-798.34900	21.51516	-636.13995	771.50482	22.38114	-641.42853	-706.44684	-1.08573	498.90140	736.03442	-2.24466	508.66977	-11.97388	1326.44714	-934.01855	
908	9.070	-797.62152	21.27803	-635.94147	772.46027	21.93986	-641.58209	-704.87701	-1.43646	498.97247	736.96790	-1.90046	508.61398	-10.87131	1325.71545	-935.07556	
909	9.080	-796.20117	20.54853	-636.15576	773.19269	21.89478	-641.57031	-704.10834	-0.98217	498.90189	737.66943	-1.57012	508.56128	-10.11834	1325.07446	-936.19104	
910	9.090	-795.50067	20.27226	-636.25366	774.37079	21.33068	-641.75262	-703.17426	-0.78982	498.79175	738.27875	-1.42256	507.86096	-8.98491	1324.49084	-937.39825	
911	9.100	-794.62347	19.97360	-636.58875	775.26172	20.74906	-641.81860	-702.20001	-0.55372	498.68848	739.88141	-0.88628	508.27084	-7.88723	1324.06653	-938.55725	
912	9.110	-793.47443	19.56158	-636.41663	776.27118	20.61797	-641.76031	-701.40228	-0.07728	498.54480	740.61658	-0.61416	508.23734	-6.76396	1323.41968	-939.51495	
913	9.120	-792.29755	18.96463	-636.35278	777.33606	20.20027	-641.92291	-700.40210	0.09767	498.47760	741.78320	-0.27560	508.17352	-6.10150	1322.84387	-940.38391	
914	9.130	-791.65179	18.67290	-636.51666	778.23358	19.84182	-642.13983	-699.27527	0.42872	498.49683	742.52429	-0.05184	507.74197	-5.36373	1322.32117	-940.98822	
915	9.140	-790.67462	18.25868	-637.06750	779.26947	19.32334	-642.18207	-698.37244	0.64956	498.42020	743.73737	0.28881	508.08847	-4.01839	1321.79395	-941.42346	
916	9.150	-789.59039	17.94940	-636.92181	780.09338	18.94284	-642.32837	-697.55872	0.97221	498.15433	744.86877	0.56938	507.90115	-3.48163	1321.35486	-942.01141	
917	9.160	-788.55261	17.48089	-636.81348	781.25299	18.64035	-642.25415	-696.70880	1.28383	498.17838	745.55701	0.70314	507.89661	-2.41109	1320.61206	-942.36121	
918	9.170	-787.79205	17.24306	-636.97656	782.15161	18.28111	-642.36890	-695.55334	1.44620	498.03235	746.36591	0.90246	507.92392	-1.43312	1320.00732	-942.86365	
